<svg xmlns="http://www.w3.org/2000/svg" xmlns:xlink="http://www.w3.org/1999/xlink" width="124" height="41" viewBox="0 0 124 41"><defs><radialGradient id="a" cx="0.5" cy="0.5" r="0.5" gradientTransform="matrix(1, 0, 0, -1, 0, 0.997)" gradientUnits="objectBoundingBox"><stop offset="0.01" stop-color="#27aae1" stop-opacity="0"/><stop offset="0.32" stop-color="#1e85b4" stop-opacity="0.22"/><stop offset="0.65" stop-color="#05162d" stop-opacity="0.871"/><stop offset="0.7" stop-color="#000013"/><stop offset="1" stop-color="#000532" stop-opacity="0"/></radialGradient><linearGradient id="b" x1="-0.002" y1="0.499" x2="1" y2="0.499" gradientUnits="objectBoundingBox"><stop offset="0" stop-color="#27aae1"/><stop offset="0.08" stop-color="#2699cf"/><stop offset="0.27" stop-color="#2474aa"/><stop offset="0.45" stop-color="#23588d"/><stop offset="0.64" stop-color="#224379"/><stop offset="0.82" stop-color="#21376c"/><stop offset="1" stop-color="#213368"/></linearGradient><linearGradient id="c" x1="0" y1="0.499" x2="1" y2="0.499" xlink:href="#b"/><linearGradient id="d" y1="0.499" x2="1" y2="0.499" gradientUnits="objectBoundingBox"><stop offset="0.01" stop-color="#ffcb05"/><stop offset="0.19" stop-color="#fec706"/><stop offset="0.38" stop-color="#fdba09"/><stop offset="0.57" stop-color="#faa60f"/><stop offset="0.76" stop-color="#f78916"/><stop offset="0.96" stop-color="#f26420"/><stop offset="1" stop-color="#f15a22"/></linearGradient><radialGradient id="e" cx="0.5" cy="0.5" r="0.5" xlink:href="#a"/><linearGradient id="f" x1="-0.002" y1="0.499" x2="1" y2="0.499" xlink:href="#d"/><linearGradient id="g" y1="0.498" x2="1" y2="0.498" gradientUnits="objectBoundingBox"><stop offset="0" stop-color="#213368"/><stop offset="0.15" stop-color="#213c71"/><stop offset="0.39" stop-color="#235489"/><stop offset="0.69" stop-color="#257bb1"/><stop offset="1" stop-color="#27aae1"/></linearGradient></defs><g transform="translate(-5110 6145)"><g transform="translate(5110 -6142.998)"><rect width="10.09" height="4.04" transform="translate(38.846 7.163)" fill="#293896"/><rect width="3.634" height="3.634" transform="translate(41.324 2.57) rotate(-45)" fill="#293896"/><rect width="3.634" height="3.634" transform="translate(9.549 33.43) rotate(-45)" fill="#293896"/><path d="M49.95,47.149v9.158H47.931a2.023,2.023,0,0,1-2.019-2.019V49.236l-4.047,1.012v4.046a2.019,2.019,0,0,1-4.036,0V49.236l-4.038,1.012v2.024a4.036,4.036,0,1,1-8.071,0h0V47.215H25.7l-4.027,1.018v.4a7.694,7.694,0,0,1-7.667,7.678H1.037L0,60.356H14.006a11.671,11.671,0,0,0,8.8-3.992,8.052,8.052,0,0,0,12.437,1.853,6.024,6.024,0,0,0,8.5.73l.171-.148a6.014,6.014,0,0,0,4.036,1.557H54V46.14Z" transform="translate(0 -32.987)" fill="#293896"/></g><g transform="translate(5174.1 -6145)"><g transform="translate(-0.1)"><path d="M40.563,20.479A20.332,20.332,0,1,1,20.21,0h.021A20.418,20.418,0,0,1,40.563,20.479Z" transform="translate(0.1)" fill="url(#a)"/><path d="M33.222,40.527A20.286,20.286,0,0,1,9.04,24.912,20.472,20.472,0,0,1,24.527.53a19.931,19.931,0,0,1,8.7,0,20.51,20.51,0,0,0,0,40Z" transform="translate(-6.734 -0.039)" fill="url(#b)"/><path d="M114.459,27.873a20.523,20.523,0,0,1-11.53,18.473A20.574,20.574,0,0,1,93.408,19a20.363,20.363,0,0,1,9.52-9.6A20.523,20.523,0,0,1,114.459,27.873Z" transform="translate(-72.04 -7.395)" fill="url(#c)"/><path d="M123.235,22.288A20.475,20.475,0,0,1,107.3,42.3a20.535,20.535,0,0,1-4.379-38.462,19.958,19.958,0,0,1,4.4-1.536A20.437,20.437,0,0,1,123.235,22.288Z" transform="translate(-72.036 -1.809)" fill="url(#d)"/><path d="M82.063,20.479A20.332,20.332,0,1,1,61.731,0h.042A20.4,20.4,0,0,1,82.063,20.479Z" transform="translate(-32.62)" fill="url(#e)"/><path d="M58.788,20.508A20.433,20.433,0,0,1,74.719.52a20.469,20.469,0,0,0-8.716,40,19.931,19.931,0,0,0,8.7,0A20.461,20.461,0,0,1,58.788,20.508Z" transform="translate(-39.43 -0.03)" fill="url(#f)"/><path d="M131.963,20.479A20.332,20.332,0,1,1,111.61,0h.042A20.4,20.4,0,0,1,131.963,20.479Z" transform="translate(-71.963)" fill="url(#g)"/></g></g></g></svg>